<?xml version="1.0" standalone="no"?>
<!DOCTYPE svg PUBLIC "-//W3C//DTD SVG 20010904//EN"
 "http://www.w3.org/TR/2001/REC-SVG-20010904/DTD/svg10.dtd">
<svg version="1.0" xmlns="http://www.w3.org/2000/svg"
 width="900.000000pt" height="900.000000pt" viewBox="0 0 900.000000 900.000000"
 preserveAspectRatio="xMidYMid meet">

<g transform="translate(0.000000,900.000000) scale(0.100000,-0.100000)"
fill="#000000" stroke="none">
<path d="M705 6558 c-225 -55 -397 -202 -460 -392 -34 -106 -35 -135 -35
-1671 0 -1333 2 -1532 15 -1590 52 -224 214 -393 435 -454 l75 -21 3742 0
c4013 0 3767 -3 3900 48 109 41 232 151 296 262 14 25 36 77 49 115 l23 70 0
1565 c0 1686 3 1599 -52 1720 -79 173 -223 291 -418 340 -79 20 -107 20 -3805
19 -2385 -1 -3739 -5 -3765 -11z m7537 -131 c26 -7 50 -16 54 -20 4 -4 15 -7
23 -7 21 0 107 -58 152 -102 53 -51 95 -117 121 -189 l23 -64 3 -1510 c3
-1655 5 -1599 -56 -1717 -56 -109 -174 -203 -311 -247 -24 -8 -1094 -11 -3771
-11 l-3737 0 -64 21 c-161 52 -278 179 -324 351 -12 45 -14 291 -14 1563 0
1715 -7 1583 85 1727 62 97 163 170 284 204 65 18 7462 19 7532 1z"/>
<path d="M3445 5945 c-5 -2 -27 -6 -47 -10 -52 -8 -112 -67 -132 -130 -15 -45
-16 -129 -14 -775 l3 -725 28 -42 c15 -24 46 -55 69 -70 l42 -28 567 -5 c549
-5 568 -6 590 -25 47 -40 48 -45 49 -183 0 -99 -4 -140 -15 -162 -32 -62 -8
-60 -591 -60 -413 0 -534 -3 -541 -12 -6 -7 -21 -42 -35 -78 -14 -36 -37 -90
-51 -120 -14 -30 -48 -111 -77 -180 -29 -69 -60 -143 -70 -165 -37 -83 -48
-114 -42 -119 11 -12 2145 -6 2187 5 54 15 101 52 125 99 19 38 20 60 20 775
0 729 0 736 -21 780 -29 62 -78 100 -146 114 -37 7 -231 11 -574 11 -312 0
-528 4 -543 10 -52 20 -66 61 -66 204 l0 129 40 38 41 39 535 2 536 3 35 85
c19 47 48 113 64 148 16 35 29 67 29 71 0 4 11 31 25 59 14 29 25 54 25 57 0
2 14 34 30 70 17 36 30 69 30 73 1 4 11 30 24 57 13 28 22 53 19 57 -4 7
-2128 10 -2148 3z"/>
<path d="M945 5924 c-43 -22 -64 -43 -83 -83 -16 -33 -17 -133 -17 -1351 0
-1312 0 -1315 21 -1347 27 -43 61 -69 109 -82 28 -8 325 -11 983 -11 l943 0
30 68 c17 37 38 85 48 107 10 22 35 81 56 130 20 50 47 113 59 140 12 28 35
82 51 120 16 39 33 76 38 83 6 7 8 15 5 18 -3 2 -312 6 -686 7 -671 2 -681 2
-709 23 -65 48 -63 20 -63 752 0 638 1 664 20 701 10 21 27 42 37 47 10 5 242
11 516 14 l499 5 54 130 c30 72 63 148 73 170 10 22 35 81 56 130 20 50 45
108 55 130 10 22 25 57 33 78 l16 37 -1057 0 c-939 0 -1060 -2 -1087 -16z"/>
<path d="M5821 5870 c-17 -39 -31 -73 -31 -76 0 -3 -9 -24 -19 -47 -10 -23
-31 -71 -46 -107 -15 -36 -40 -93 -56 -128 -16 -35 -29 -69 -29 -76 0 -6 -4
-16 -8 -22 -11 -11 -62 -132 -62 -145 0 -5 45 -9 100 -9 l100 0 2 -1102 3
-1103 1028 -2 1027 -3 24 53 c13 28 41 92 61 142 21 49 48 112 60 140 13 27
35 79 50 115 15 36 33 79 40 95 7 17 22 51 34 78 l20 47 -661 0 c-652 0 -662
0 -705 21 -67 32 -75 57 -71 214 3 132 3 134 32 164 l30 31 544 2 545 3 44
105 c24 58 52 124 63 147 11 24 20 46 20 49 0 3 7 20 15 37 44 95 142 337 136
337 -3 0 -302 0 -663 0 -704 0 -698 -1 -743 50 -17 19 -21 39 -23 137 -5 144
1 175 39 213 l31 30 542 0 543 0 11 33 c5 17 40 102 77 187 36 85 79 189 96
230 17 41 36 88 44 105 7 16 22 51 34 78 l20 47 -1133 0 -1133 0 -32 -70z"/>
</g>
</svg>
